<svg xmlns="http://www.w3.org/2000/svg" xmlns:xlink="http://www.w3.org/1999/xlink" width="300" height="300" viewBox="0 0 300 300">
  <defs>
    <style>
    @import "index.css";
      .cls-1 {
        fill: none;
      }

      .cls-2 {
        clip-path: url(#clip-path);
      }

      .cls-3 {
        fill: #030404;
      }
      .cls-4 {
        fill: #ffa400;
      }

      [data-theme="dark"] .cls-3{
        fill: #F9F9F9;
      }
    </style>
    <clipPath id="clip-path">
      <rect id="Rectangle_8" data-name="Rectangle 8" class="cls-1" width="300" height="300" transform="translate(1990 -314)"/>
    </clipPath>
  </defs>
  <g id="Mask_Group_3" data-name="Mask Group 3" class="cls-2" transform="translate(-1990 314)">
    <g id="Group_64" data-name="Group 64">
      <path id="Path_36" data-name="Path 36" class="cls-3" d="M183.485,123.96a1.721,1.721,0,0,1,.236,2.118l-7.831,12.594,14.079,5.555a1.721,1.721,0,0,1,.876,2.43l-8.6,15.657a1.721,1.721,0,1,1-3.017-1.657l7.661-13.945-14.181-5.6a1.722,1.722,0,0,1-.83-2.51l8.921-14.346a1.725,1.725,0,0,1,2.687-.3" transform="translate(1961.465 -333.921)"/>
      <path id="Path_38" data-name="Path 38" class="cls-3" d="M123.07,300a1.719,1.719,0,0,1,1.708,1.51l1.825,14.748,14.145-4.715a1.721,1.721,0,0,1,2.244,1.36l2.464,15.4,14.42-4.449a1.721,1.721,0,0,1,1.015,3.289l-16.314,5.033a1.722,1.722,0,0,1-2.207-1.373l-2.456-15.353L125.7,320.188a1.72,1.72,0,0,1-2.252-1.421l-1.828-14.776-14.338,4.576a1.721,1.721,0,1,1-1.046-3.279l16.314-5.206a1.706,1.706,0,0,1,.523-.082" transform="translate(1961.465 -333.921)"/>
      <path id="Path_39" data-name="Path 39" class="cls-3" d="M123.07,0a1.719,1.719,0,0,1,1.708,1.51L126.6,16.258l14.145-4.715a1.721,1.721,0,0,1,2.244,1.36l2.464,15.4,14.42-4.449a1.721,1.721,0,0,1,1.015,3.289l-16.314,5.033A1.722,1.722,0,0,1,142.37,30.8l-2.456-15.353L125.7,20.188a1.72,1.72,0,0,1-2.252-1.421L121.617,3.991,107.279,8.567a1.721,1.721,0,1,1-1.046-3.279L122.547.082A1.705,1.705,0,0,1,123.07,0" transform="translate(1961.465 -333.921)"/>
      <path id="Path_45" data-name="Path 45" class="cls-3" d="M66.8,247.206a1.714,1.714,0,0,1,1.189.491l12.915,12.634a1.721,1.721,0,0,1-.78,2.9l-17.739,4.509a1.722,1.722,0,0,1-2.081-2.134l4.825-17.144a1.722,1.722,0,0,1,1.213-1.2,1.7,1.7,0,0,1,.458-.058m9.506,13.442-8.649-8.462-3.232,11.482Z" transform="translate(1961.465 -333.921)"/>
      <path id="Path_46" data-name="Path 46" class="cls-3" d="M204.867,236.932a1.714,1.714,0,0,1,1.189.491l12.915,12.634a1.721,1.721,0,0,1-.78,2.9l-17.739,4.509a1.722,1.722,0,0,1-2.081-2.134l4.825-17.144a1.722,1.722,0,0,1,1.213-1.2,1.7,1.7,0,0,1,.458-.058m9.506,13.442-8.649-8.462-3.232,11.482Z" transform="translate(1961.465 -333.921)"/>
      <path id="Path_47" data-name="Path 47" class="cls-3" d="M301.828,120.408a1.721,1.721,0,0,1,1.9,2.187l-4.147,14.161a1.721,1.721,0,1,1-3.3-.967l4.147-14.161a1.722,1.722,0,0,1,1.406-1.22" transform="translate(1961.465 -333.921)"/>
      <path id="Path_48" data-name="Path 48" class="cls-3" d="M292.674,125.415a1.727,1.727,0,0,1,.729.052l14.161,4.147a1.721,1.721,0,0,1-.967,3.3l-14.161-4.147a1.722,1.722,0,0,1,.238-3.356" transform="translate(1961.465 -333.921)"/>
      <path id="Path_49" data-name="Path 49" class="cls-3" d="M248.4,11.136a1.721,1.721,0,0,1,1.9,2.187l-4.147,14.161a1.721,1.721,0,1,1-3.3-.967L247,12.356a1.722,1.722,0,0,1,1.406-1.22" transform="translate(1961.465 -333.921)"/>
      <path id="Path_50" data-name="Path 50" class="cls-3" d="M239.249,16.143a1.727,1.727,0,0,1,.729.052l14.161,4.147a1.721,1.721,0,0,1-.967,3.3L239.011,19.5a1.722,1.722,0,0,1,.238-3.356" transform="translate(1961.465 -333.921)"/>
      <path id="Path_53" data-name="Path 53" class="cls-3" d="M248.4,311.136a1.721,1.721,0,0,1,1.9,2.187l-4.147,14.161a1.721,1.721,0,1,1-3.3-.967L247,312.356a1.722,1.722,0,0,1,1.406-1.22" transform="translate(1961.465 -333.921)"/>
      <path id="Path_54" data-name="Path 54" class="cls-3" d="M239.249,316.143a1.727,1.727,0,0,1,.729.052l14.161,4.147a1.721,1.721,0,0,1-.967,3.3L239.011,319.5a1.722,1.722,0,0,1,.238-3.356" transform="translate(1961.465 -333.921)"/>
      <path id="Path_66" data-name="Path 66" class="cls-3" d="M61.682,128.776,60.32,126.9a1.01,1.01,0,0,0-.449-.347l-2.159-.844a1.01,1.01,0,0,1-.226-1.758l1.876-1.362a1,1,0,0,0,.347-.449l.845-2.159a1.009,1.009,0,0,1,1.757-.225l1.362,1.875a1.009,1.009,0,0,0,.449.347l2.159.845a1.009,1.009,0,0,1,.226,1.757l-1.876,1.363a1,1,0,0,0-.347.449l-.845,2.159a1.009,1.009,0,0,1-1.757.225" transform="translate(1961.465 -333.921)"/>
      <path id="Path_67" data-name="Path 67" class="cls-3" d="M76.785,126.81l-1.015-1.4a.757.757,0,0,0-.335-.259l-1.609-.629a.753.753,0,0,1-.168-1.31l1.4-1.016a.753.753,0,0,0,.259-.335l.629-1.609a.753.753,0,0,1,1.31-.168l1.015,1.4a.75.75,0,0,0,.335.259l1.609.63a.752.752,0,0,1,.168,1.31l-1.4,1.015a.758.758,0,0,0-.259.335l-.629,1.609a.753.753,0,0,1-1.31.168" transform="translate(1961.465 -333.921)"/>
      <path id="Path_68" data-name="Path 68" class="cls-3" d="M67.409,113.957l-.095-1.208a.53.53,0,0,0-.105-.278l-.732-.966a.528.528,0,0,1,.38-.845l1.208-.1a.532.532,0,0,0,.278-.106l.966-.731a.528.528,0,0,1,.845.379l.1,1.209a.524.524,0,0,0,.1.277l.732.967a.528.528,0,0,1-.38.845l-1.208.1a.522.522,0,0,0-.278.105l-.966.732a.528.528,0,0,1-.845-.38" transform="translate(1961.465 -333.921)"/>
    </g>
    <g id="Group_63" data-name="Group 63">
    <path id="Path_60" data-name="Path 60" class="cls-4" d="M330.586,83.385l-1.015-1.4a.757.757,0,0,0-.335-.259l-1.609-.629a.753.753,0,0,1-.168-1.31l1.4-1.016a.753.753,0,0,0,.259-.335l.629-1.609a.753.753,0,0,1,1.31-.168l1.015,1.4a.749.749,0,0,0,.335.259l1.609.63a.752.752,0,0,1,.168,1.31l-1.4,1.015a.758.758,0,0,0-.259.335l-.629,1.609a.753.753,0,0,1-1.31.168" transform="translate(1961.465 -333.921)"/>
      <path id="Path_37" data-name="Path 37" class="cls-4" d="M85.891,35a1.721,1.721,0,0,1-1,1.883l-13.562,6L79.843,55.4a1.721,1.721,0,0,1-.642,2.5l-15.923,8.1a1.721,1.721,0,0,1-1.56-3.068L75.9,55.725,67.326,43.119a1.72,1.72,0,0,1,.725-2.541L83.5,33.74a1.722,1.722,0,0,1,2.271.877,1.746,1.746,0,0,1,.12.387" transform="translate(1961.465 -333.921)"/>
      <path id="Path_40" data-name="Path 40" class="cls-4" d="M18.035,183.839a1.719,1.719,0,0,1,1.708,1.51L21.568,200.1l14.145-4.715a1.721,1.721,0,0,1,2.244,1.36l2.464,15.4,14.42-4.449a1.721,1.721,0,1,1,1.015,3.289l-16.314,5.033a1.722,1.722,0,0,1-2.207-1.373l-2.456-15.353-14.217,4.739a1.72,1.72,0,0,1-2.252-1.421L16.582,187.83,2.244,192.406A1.721,1.721,0,1,1,1.2,189.127l16.314-5.206a1.705,1.705,0,0,1,.523-.082" transform="translate(1961.465 -333.921)"/>
      <path id="Path_41" data-name="Path 41" class="cls-4" d="M318.035,183.839a1.719,1.719,0,0,1,1.708,1.51l1.825,14.748,14.145-4.715a1.721,1.721,0,0,1,2.244,1.36l2.464,15.4,14.42-4.449a1.721,1.721,0,1,1,1.015,3.289l-16.314,5.033a1.722,1.722,0,0,1-2.207-1.373l-2.456-15.353-14.217,4.739a1.72,1.72,0,0,1-2.252-1.421l-1.828-14.776-14.338,4.576a1.721,1.721,0,0,1-1.046-3.279l16.314-5.206a1.705,1.705,0,0,1,.523-.082" transform="translate(1961.465 -333.921)"/>
      <path id="Path_42" data-name="Path 42" class="cls-4" d="M216.342,72.477a1.719,1.719,0,0,1,1.708,1.51l1.825,14.748L234.02,84.02a1.721,1.721,0,0,1,2.244,1.36l2.464,15.4,14.42-4.449a1.721,1.721,0,1,1,1.015,3.289l-16.314,5.033a1.722,1.722,0,0,1-2.207-1.373l-2.456-15.353-14.217,4.739a1.72,1.72,0,0,1-2.252-1.421l-1.828-14.776-14.338,4.576a1.721,1.721,0,1,1-1.046-3.279l16.314-5.206a1.705,1.705,0,0,1,.523-.082" transform="translate(1961.465 -333.921)"/>
      <path id="Path_43" data-name="Path 43" class="cls-4" d="M245.1,164.568a1.717,1.717,0,0,1,1.171-.535l18.048-.824a1.721,1.721,0,0,1,1.587,2.547l-8.8,16.046a1.721,1.721,0,0,1-2.98.066l-9.243-15.223a1.718,1.718,0,0,1,.222-2.077m16.314,2.219-12.088.552,6.191,10.195Z" transform="translate(1961.465 -333.921)"/>
      <path id="Path_44" data-name="Path 44" class="cls-4" d="M98.17,182.628a1.717,1.717,0,0,1,1.171-.535l18.048-.824a1.721,1.721,0,0,1,1.587,2.547l-8.805,16.046a1.72,1.72,0,0,1-2.979.066l-9.244-15.223a1.718,1.718,0,0,1,.222-2.077m16.314,2.219L102.4,185.4l6.191,10.195Z" transform="translate(1961.465 -333.921)"/>
      <path id="Path_51" data-name="Path 51" class="cls-4" d="M130.832,79.817a1.721,1.721,0,0,1,1.9,2.187l-4.147,14.161a1.721,1.721,0,1,1-3.3-.967l4.147-14.161a1.722,1.722,0,0,1,1.406-1.22" transform="translate(1961.465 -333.921)"/>
      <path id="Path_52" data-name="Path 52" class="cls-4" d="M121.678,84.824a1.727,1.727,0,0,1,.729.052l14.161,4.147a1.721,1.721,0,0,1-.967,3.3L121.44,88.18a1.722,1.722,0,0,1,.238-3.356" transform="translate(1961.465 -333.921)"/>
      <path id="Path_55" data-name="Path 55" class="cls-4" d="M43.5,304.063a1.722,1.722,0,0,1,.727,2.8l-10.01,10.841a1.721,1.721,0,0,1-2.529-2.335L41.7,304.531a1.72,1.72,0,0,1,1.8-.468" transform="translate(1961.465 -333.921)"/>
      <path id="Path_56" data-name="Path 56" class="cls-4" d="M33.079,304.478a1.72,1.72,0,0,1,.63.371l10.841,10.01a1.721,1.721,0,0,1-2.335,2.529l-10.841-10.01a1.721,1.721,0,0,1,1.7-2.9" transform="translate(1961.465 -333.921)"/>
      <path id="Path_57" data-name="Path 57" class="cls-4" d="M283.351,282.69a1.722,1.722,0,0,1,.727,2.8l-10.01,10.841A1.721,1.721,0,1,1,271.539,294l10.01-10.841a1.72,1.72,0,0,1,1.8-.468" transform="translate(1961.465 -333.921)"/>
      <path id="Path_58" data-name="Path 58" class="cls-4" d="M272.926,283.106a1.724,1.724,0,0,1,.629.371l10.841,10.01a1.721,1.721,0,1,1-2.335,2.529l-10.841-10.01a1.722,1.722,0,0,1,1.706-2.9" transform="translate(1961.465 -333.921)"/>
      <path id="Path_59" data-name="Path 59" class="cls-4" d="M315.483,85.351l-1.362-1.876a1.011,1.011,0,0,0-.449-.347l-2.159-.844a1.01,1.01,0,0,1-.226-1.758l1.876-1.362a1,1,0,0,0,.347-.449l.845-2.159a1.009,1.009,0,0,1,1.757-.225l1.362,1.875a1.009,1.009,0,0,0,.449.347l2.159.845a1.009,1.009,0,0,1,.226,1.757l-1.876,1.362a1.013,1.013,0,0,0-.347.45l-.845,2.159a1.009,1.009,0,0,1-1.757.225" transform="translate(1961.465 -333.921)"/>
      <path id="Path_61" data-name="Path 61" class="cls-4" d="M321.21,70.532l-.1-1.208a.53.53,0,0,0-.1-.278l-.732-.966a.528.528,0,0,1,.38-.845l1.208-.1a.532.532,0,0,0,.278-.106l.966-.731a.528.528,0,0,1,.845.379l.1,1.209a.524.524,0,0,0,.105.277l.732.967a.528.528,0,0,1-.38.845l-1.208.095a.522.522,0,0,0-.278.105l-.966.732a.528.528,0,0,1-.845-.38" transform="translate(1961.465 -333.921)"/>
      <path id="Path_62" data-name="Path 62" class="cls-4" d="M30.586,83.385l-1.015-1.4a.757.757,0,0,0-.335-.259L27.627,81.1a.753.753,0,0,1-.168-1.31l1.4-1.016a.753.753,0,0,0,.259-.335l.629-1.609a.753.753,0,0,1,1.31-.168l1.015,1.4a.75.75,0,0,0,.335.259l1.609.63a.752.752,0,0,1,.168,1.31l-1.4,1.015a.758.758,0,0,0-.259.335L31.9,83.217a.753.753,0,0,1-1.31.168" transform="translate(1961.465 -333.921)"/>
      <path id="Path_63" data-name="Path 63" class="cls-4" d="M121.9,261.556l-1.363-1.876a1.01,1.01,0,0,0-.449-.347l-2.158-.844a1.01,1.01,0,0,1-.227-1.758l1.876-1.362a1,1,0,0,0,.347-.449l.845-2.159a1.01,1.01,0,0,1,1.758-.225l1.362,1.875a1,1,0,0,0,.448.347l2.16.845a1.009,1.009,0,0,1,.225,1.757l-1.875,1.363a1,1,0,0,0-.347.449l-.846,2.159a1.009,1.009,0,0,1-1.756.225" transform="translate(1961.465 -333.921)"/>
      <path id="Path_64" data-name="Path 64" class="cls-4" d="M137.007,259.589l-1.015-1.4a.756.756,0,0,0-.335-.259l-1.609-.629a.753.753,0,0,1-.168-1.31l1.4-1.016a.753.753,0,0,0,.259-.335l.629-1.609a.753.753,0,0,1,1.31-.168l1.015,1.4a.75.75,0,0,0,.335.259l1.609.63a.752.752,0,0,1,.168,1.31l-1.4,1.015a.758.758,0,0,0-.259.335l-.629,1.609a.753.753,0,0,1-1.31.168" transform="translate(1961.465 -333.921)"/>
      <path id="Path_65" data-name="Path 65" class="cls-4" d="M127.632,246.737l-.1-1.208a.53.53,0,0,0-.105-.278l-.732-.966a.528.528,0,0,1,.38-.845l1.208-.1a.531.531,0,0,0,.278-.106l.966-.731a.528.528,0,0,1,.845.379l.095,1.209a.524.524,0,0,0,.105.277l.732.967a.528.528,0,0,1-.38.845l-1.208.1a.522.522,0,0,0-.278.1l-.966.732a.527.527,0,0,1-.844-.38" transform="translate(1961.465 -333.921)"/>
    </g>
  </g>
</svg>
