<svg xmlns="http://www.w3.org/2000/svg" width="34" height="45" viewBox="0 0 34 45">
  <path id="Path_1" data-name="Path 1" d="M17.567,7.2h7.123V24.693l.134-.134c.672-.668,1.344-1.469,2.016-2.137,0-.134.134-.134.269-.134h7.929V41.25H38.8v5.475H35.037V52.2H27.915V46.725H9.907V40.449c0-.134,0-.134.134-.267.806-.935,1.613-1.869,2.553-2.8l.134-.134H4.8V31.369h9.676a2.3,2.3,0,0,0,.941-.134,1.9,1.9,0,0,0,1.209-1.068c0-.134,0-.134.134-.267a5.444,5.444,0,0,0,.134-1.469V7.6C17.567,7.334,17.567,7.334,17.567,7.2ZM27.915,29.366h0c-3.494,3.872-6.988,7.745-10.348,11.751H27.915Z" transform="translate(-4.8 -7.2)"/>
</svg>
